<?xml version="1.0" encoding="UTF-8"?>
<svg id="_レイヤー_1" data-name="レイヤー_1" xmlns="http://www.w3.org/2000/svg" version="1.1" viewBox="0 0 207 72">
  <!-- Generator: Adobe Illustrator 29.1.0, SVG Export Plug-In . SVG Version: 2.1.0 Build 142)  -->
  <defs>
    <style>
      .st0 {
        fill: none;
        stroke: #231815;
        stroke-miterlimit: 10;
      }
    </style>
  </defs>
  <path class="st0" d="M27,36C27,16.12,37.07,0,49.5,0s22.5,16.12,22.5,36"/>
  <path class="st0" d="M45,36C45,16.12,55.07,0,67.5,0s22.5,16.12,22.5,36"/>
  <path class="st0" d="M72,36c0,19.88-6.04,36-13.5,36s-13.5-16.12-13.5-36"/>
  <path class="st0" d="M90,36c0,19.88-6.04,36-13.5,36s-13.5-16.12-13.5-36"/>
  <path class="st0" d="M63,36C63,16.12,73.07,0,85.5,0s22.5,16.12,22.5,36"/>
  <path class="st0" d="M81,36c0-19.88,10.07-36,22.5-36s22.5,16.12,22.5,36"/>
  <path class="st0" d="M108,36c0,19.88-6.04,36-13.5,36s-13.5-16.12-13.5-36"/>
  <path class="st0" d="M126,36c0,19.88-6.04,36-13.5,36s-13.5-16.12-13.5-36"/>
  <path class="st0" d="M144,36c0,19.88-6.04,36-13.5,36s-13.5-16.12-13.5-36"/>
  <path class="st0" d="M162,36c0,19.88-6.04,36-13.5,36s-13.5-16.12-13.5-36"/>
  <path class="st0" d="M99,36c0-19.88,10.07-36,22.5-36s22.5,16.12,22.5,36"/>
  <path class="st0" d="M117,36c0-19.88,10.07-36,22.5-36s22.5,16.12,22.5,36"/>
  <path class="st0" d="M135,36c0-19.88,10.07-36,22.5-36s22.5,16.12,22.5,36"/>
  <line class="st0" x1="180" y1="36" x2="207" y2="36"/>
  <line class="st0" y1="36" x2="27" y2="36"/>
</svg>